<?xml version="1.0"?>
<svg xmlns="http://www.w3.org/2000/svg" id="Capa_1" enable-background="new 0 0 512 512" height="512px" viewBox="0 0 512 512" width="512px" class=""><g><g><g><path d="m496.753 328.95c0-17.042-13.861-30.907-30.899-30.907h-25.5l-5.857-13.811c-4.758-11.219-13.597-19.638-24.25-23.098-14.779-4.801-30.315-7.455-45.691-9.45-19.039-2.471-38.888-4.441-58.102-3.64-3.275.018-6.498.072-9.676.153.364-2.269.57-4.57.57-6.891v-197.884c-.001-23.943-19.475-43.422-43.411-43.422h-195.28c-23.937 0-43.41 19.479-43.41 43.422 0 5.523 4.478 10 10 10s10-4.477 10-10c0-12.915 10.502-23.422 23.41-23.422h195.279c12.908 0 23.41 10.507 23.41 23.422v197.883c0 2.704-.464 5.366-1.359 7.876-20.879 1.457-41.919 4.095-62.202 9.398-5.718 1.495-11.518 3.038-16.603 6.148h-138.525c-12.908 0-23.41-10.507-23.41-23.422v-109.138c0-5.523-4.478-10-10-10s-10 4.477-10 10v109.138c0 23.943 19.474 43.422 43.41 43.422h121.854l-5.647 13.315h-25.509c-17.038 0-30.899 13.865-30.899 30.907 0 14.434 9.945 26.586 23.34 29.968-4.331 6.975-6.707 15.105-6.707 23.413l.005 106.801c0 12.609 10.257 22.868 22.863 22.868h41.732c12.606 0 22.863-10.259 22.863-22.868v-19.21h171.576v19.21c0 12.609 10.257 22.868 22.863 22.868h41.731c12.607 0 22.864-10.259 22.864-22.868l.003-106.801c0-8.447-2.463-16.706-6.934-23.759 12.764-3.801 22.098-15.639 22.098-29.621zm-45.35 120.971h-14.428v-10.167c0-14.672-11.934-26.609-26.603-26.609h-16.608c-14.669 0-26.603 11.937-26.603 26.609v10.167h-118.443v-10.167c0-14.672-11.934-26.609-26.603-26.609h-16.608c-14.669 0-26.603 11.937-26.603 26.609v10.167h-13.629c-1.755 0-3.408-.447-4.852-1.232-3.172-1.73-5.33-5.1-5.33-8.966 0-.033-.005-.064-.005-.097v-57.296c0-6.622 2.75-13.038 7.545-17.603l1.013-.965 2.751 9.189c4.391 14.661 17.62 24.511 32.921 24.511h221.524c14.471 0 27.472-9.155 32.353-22.782l2.808-7.841c3.574 4.331 5.587 9.834 5.587 15.49v57.335c0 .02-.003.038-.003.058 0 3.101-1.393 5.878-3.58 7.75-1.779 1.524-4.084 2.449-6.604 2.449zm-268.049-90.065h253.907l-2.894 8.081c-2.041 5.698-7.477 9.526-13.524 9.526h-221.524c-6.396 0-11.926-4.119-13.761-10.249zm123.57-91.815c.456-.002.913-.002 1.369 0 43.791.205 78.963 6.654 95.775 12.114 5.141 1.67 9.52 6.001 12.014 11.884h.001l20.269 47.817h-257.496l20.278-47.818c1.654-3.899 4.138-7.11 7.121-9.323 5.737-4.284 14.276-5.312 21.104-6.785 8.499-1.834 17.095-3.228 25.713-4.359 17.85-2.343 35.852-3.446 53.852-3.53zm-168.469 60.909c0-6.014 4.89-10.907 10.899-10.907h17.027l-9.251 21.814h-7.776c-6.009-.001-10.899-4.893-10.899-10.907zm64.098 160.182c0 1.582-1.284 2.868-2.863 2.868h-41.732c-1.579 0-2.863-1.287-2.863-2.868v-20.976c3.251 1.169 6.729 1.769 10.184 1.769h37.275v19.207zm-3.649-39.211v-10.167c0-3.644 2.962-6.609 6.603-6.609h16.608c3.641 0 6.603 2.965 6.603 6.609v10.167zm188.258-10.167c0-3.644 2.962-6.609 6.603-6.609h16.608c3.641 0 6.603 2.965 6.603 6.609v10.167h-29.813v-10.167zm74.426 49.378c0 1.582-1.285 2.868-2.864 2.868h-41.731c-1.579 0-2.863-1.287-2.863-2.868v-19.208h37.275c3.454 0 6.933-.6 10.184-1.769v20.977zm4.266-149.276h-7.768l-9.251-21.814h17.019c6.01 0 10.899 4.893 10.899 10.907s-4.89 10.907-10.899 10.907z" data-original="#000000" class="active-path" data-old_color="#000000" fill="#E67E22"/><path d="m127.961 239.234c5.522 0 10-4.477 10-10v-35.081h32.181c41.248 0 74.806-33.568 74.806-74.83s-33.558-74.83-74.806-74.83h-83.246c-5.522 0-10 4.477-10 10v174.74c0 5.523 4.478 10 10 10h41.065zm-31.065-174.739h73.245c30.22 0 54.806 24.597 54.806 54.83s-24.586 54.83-54.806 54.83h-42.181c-5.522 0-10 4.477-10 10v35.081h-21.064z" data-original="#000000" class="active-path" data-old_color="#000000" fill="#E67E22"/><path d="m127.961 153.074h42.181c18.604 0 33.741-15.14 33.741-33.75s-15.137-33.75-33.741-33.75h-42.181c-5.522 0-10 4.477-10 10v47.5c0 5.523 4.477 10 10 10zm10-47.5h32.181c7.577 0 13.741 6.168 13.741 13.75s-6.164 13.75-13.741 13.75h-32.181z" data-original="#000000" class="active-path" data-old_color="#000000" fill="#E67E22"/><path d="m16.93 94.12c3.039 4.518 9.328 5.807 13.87 2.77 4.54-3.035 5.767-9.33 2.76-13.87-3.011-4.547-9.337-5.761-13.859-2.76-4.537 3.01-5.792 9.336-2.771 13.86z" data-original="#000000" class="active-path" data-old_color="#000000" fill="#E67E22"/></g></g></g> </svg>
