<?xml version="1.0"?>
<svg xmlns="http://www.w3.org/2000/svg" id="icons" enable-background="new 0 0 64 64" height="512px" viewBox="0 0 64 64" width="512px"><g><path d="m62.999 60.002h-2.002v-19.002c0-.002-.001-.003-.001-.005v-25.997-6c0-.553-.447-1-1-1h-21.076c-.488-3.387-3.401-6-6.92-6s-6.432 2.613-6.92 6h-21.075c-.002 0-.003-.001-.005-.001-.553 0-1 .447-1 1v6.001c0 .005.003.01.003.015v25.987 19.002h-2.002c-.553 0-1 .447-1 1s.447 1 1 1h61.998c.553 0 1-.447 1-1s-.447-1-1-1zm-35.889-46.004h-22.11v-4h20.08c.225 1.557.956 2.949 2.03 4zm11.81-4h20.076v4h-22.106c1.074-1.051 1.805-2.443 2.03-4zm-33.917 6h.996v24.002h-.996zm0 26.002h21.993c.007 0 .013.004.02.004h6 3c.007 0 .013-.004.02-.004h22.962v2.002h-53.995zm9.013-3.006c0-.549.443-.992.99-.998.004 0 .006.002.01.002h.77l1.779.889c.015.007.03.004.045.011.126.056.26.094.398.094.001 0 .002.001.003.001h.001.001c.083 0 .166-.013.249-.034.028-.008.054-.02.081-.029.038-.014.078-.023.115-.042l1.781-.889h.769c.004 0 .006-.002.01-.002.547.006.99.449.99.998 0 .004.002.006.002.01v.995h-7.994zm3.996-12.498c-1.124 0-2.047.18-2.804.45.428-1.136 1.519-1.95 2.804-1.95s2.376.814 2.804 1.95c-.757-.27-1.68-.45-2.804-.45zm2.517 2.504h-5.034c.606-.284 1.413-.504 2.517-.504s1.911.22 2.517.504zm.482 2c0 .006.003.01.003.016-.011 1.646-1.353 2.98-3.002 2.98-1.655 0-3.001-1.344-3.004-2.996zm-2.999 4.996c.343 0 .677-.035 1-.101v.48l-.999.499-.999-.499v-.48c.322.066.656.101.998.101zm16.004-2h1v6.004h-1zm-2 6.004h-4v-6.004h4zm26.98-24.002v24.002h-.996v-24.002zm.001 30.004v2h-53.994v-2zm0 4v2h-53.994v-2zm-2.997-34.004v24.002h-18.984v-7.004c0-.553-.447-1-1-1h-3-6c-.553 0-1 .447-1 1v7.004h-2.006v-1.006c0-.007-.004-.013-.004-.02-.011-1.644-1.349-2.978-2.994-2.98v-1.021c1.208-.913 2.002-2.347 2.004-3.973h.002c.124 0 .251-.023.373-.072.003-.001.004-.003.007-.004.108-.045.204-.113.289-.191.011-.009.026-.014.036-.023.089-.089.159-.194.21-.311.001-.002.004-.004.005-.006.014-.033.012-.071.022-.105.027-.092.055-.183.056-.278 0-.003.002-.006.002-.009 0-.07-.026-.132-.04-.198-.012-.059-.009-.117-.032-.175-.001-.002-.004-.01-.006-.013-.001-.003-.002-.005-.003-.007-.043-.104-.298-.669-.921-1.295v-.316c0-2.757-2.245-5-5.004-5s-5.004 2.243-5.004 5v.316c-.623.627-.878 1.191-.921 1.295-.001.002-.002.004-.003.007-.002.003-.005.011-.006.013-.026.066-.025.134-.038.201-.01.059-.034.111-.034.172 0 .002.001.004.001.007.001.069.025.135.041.202.098.447.479.79.958.79h.002c.002 1.627.797 3.062 2.006 3.974v1.021c-1.653.001-2.998 1.347-2.998 3v1.005h-4.017v-24.002zm-50.997 38.004h53.994v2h-53.994zm26.997-50.004c2.757 0 5 2.243 5 5s-2.243 5-5 5-5-2.243-5-5 2.243-5 5-5zm-26.997 54.004h53.994v2h-53.994z" data-original="#000000" class="active-path" data-old_color="#000000" fill="#E67E22"/><path d="m32 11.998c1.654 0 3-1.346 3-3s-1.346-3-3-3-3 1.346-3 3 1.346 3 3 3zm0-4c.552 0 1 .448 1 1s-.448 1-1 1-1-.448-1-1 .448-1 1-1z" data-original="#000000" class="active-path" data-old_color="#000000" fill="#E67E22"/><path d="m40.999 35h12c.553 0 1-.447 1-1v-15c0-.553-.447-1-1-1h-12c-.553 0-1 .447-1 1v15c0 .553.447 1 1 1zm1-15h10v13h-10z" data-original="#000000" class="active-path" data-old_color="#000000" fill="#E67E22"/><path d="m47 21h-3c-.553 0-1 .447-1 1s.447 1 1 1h3c.553 0 1-.447 1-1s-.447-1-1-1z" data-original="#000000" class="active-path" data-old_color="#000000" fill="#E67E22"/><path d="m50.03 21h-.01c-.552 0-.994.447-.994 1s.452 1 1.005 1c.552 0 1-.447 1-1s-.449-1-1.001-1z" data-original="#000000" class="active-path" data-old_color="#000000" fill="#E67E22"/><path d="m47 24h-3c-.553 0-1 .447-1 1s.447 1 1 1h3c.553 0 1-.447 1-1s-.447-1-1-1z" data-original="#000000" class="active-path" data-old_color="#000000" fill="#E67E22"/><path d="m50.03 24h-.01c-.552 0-.994.447-.994 1s.452 1 1.005 1c.552 0 1-.447 1-1s-.449-1-1.001-1z" data-original="#000000" class="active-path" data-old_color="#000000" fill="#E67E22"/><path d="m47 27h-3c-.553 0-1 .447-1 1s.447 1 1 1h3c.553 0 1-.447 1-1s-.447-1-1-1z" data-original="#000000" class="active-path" data-old_color="#000000" fill="#E67E22"/><path d="m50.03 27h-.01c-.552 0-.994.447-.994 1s.452 1 1.005 1c.552 0 1-.447 1-1s-.449-1-1.001-1z" data-original="#000000" class="active-path" data-old_color="#000000" fill="#E67E22"/><path d="m47 30h-3c-.553 0-1 .447-1 1s.447 1 1 1h3c.553 0 1-.447 1-1s-.447-1-1-1z" data-original="#000000" class="active-path" data-old_color="#000000" fill="#E67E22"/><path d="m50.03 30h-.01c-.552 0-.994.447-.994 1s.452 1 1.005 1c.552 0 1-.447 1-1s-.449-1-1.001-1z" data-original="#000000" class="active-path" data-old_color="#000000" fill="#E67E22"/></g> </svg>
