<?xml version="1.0"?>
<svg xmlns="http://www.w3.org/2000/svg" height="512px" viewBox="0 0 60 58" width="512px"><g><g id="Page-1" fill="none" fill-rule="evenodd"><g id="036---Toastie" fill="rgb(0,0,0)" fill-rule="nonzero" transform="translate(-1)"><path id="Shape" d="m18.625 17.271c-.2071041-.1658359-.4716222-.2425711-.735322-.2133128-.2636999.0292583-.5049635.1621115-.670678.3693128l-4 5c-.3407114.4315746-.2690699 1.0572621.1603755 1.4006534.4294453.3433912 1.0555666.275646 1.4016245-.1516534l4-5c.3446667-.4311264.2748438-1.0599801-.156-1.405z" data-original="#000000" class="active-path" data-old_color="#000000" fill="#E67E22"/><path id="Shape" d="m42.375 23.832c.2071041.1658359.4716222.2425711.735322.2133128.2636999-.0292583.5049635-.1621115.670678-.3693128l4-5c.3407114-.4315746.2690699-1.0572621-.1603755-1.4006534-.4294453-.3433912-1.0555666-.275646-1.4016245.1516534l-4 5c-.3446667.4311264-.2748438 1.0599801.156 1.405z" data-original="#000000" class="active-path" data-old_color="#000000" fill="#E67E22"/><path id="Shape" d="m23.419 18.427-4.8 6c-.3449018.4316105-.2746105 1.0610982.157 1.406s1.0610982.2746105 1.406-.157l4.8-6c.3407114-.4315746.2690699-1.0572621-.1603755-1.4006534-.4294453-.3433912-1.0555666-.275646-1.4016245.1516534z" data-original="#000000" class="active-path" data-old_color="#000000" fill="#E67E22"/><path id="Shape" d="m34.8 26.051c.3041289.000418.5919196-.137589.782-.375l7.2-9c.3407114-.4315746.2690699-1.0572621-.1603755-1.4006534-.4294453-.3433912-1.0555666-.275646-1.4016245.1516534l-7.2 9c-.2396088.3000571-.2862422.7108146-.1199956 1.0569486s.5160082.5665048.8999956.5670514z" data-original="#000000" class="active-path" data-old_color="#000000" fill="#E67E22"/><path id="Shape" d="m58.383 27.429c.4019299-.9065213.6119976-1.8863834.617-2.878 0-3.183-2.252-6.244-6.342-8.619-.0677486-.0424958-.1406798-.0761047-.217-.1-4.336-2.885-12.233-4.781-21.441-4.781-2.17 0-4.267.106-6.262.3l-2.388-3.1c2.33-2.3 2.447-5.017 1.257-6.561s-3.855-2.111-6.665-.453l-.653-.847c-.3417392-.42128112-.9570401-.49327838-1.3868056-.16227214-.4297654.33100623-.5172571.9442957-.1971944 1.38227214l.653.848c-2.323 2.3-2.451 5.011-1.256 6.561 1.208 1.57 3.882 2.1 6.664.458l1.662 2.157c-5.449.772-9.972 2.267-12.882 4.212-.04429532.011654-.08773216.0263557-.13.044l-.047.026c-4.107 2.377-6.369 5.444-6.369 8.635.00500238.9916166.2150701 1.9714787.617 2.878-1.86793841 1.8760952-2.81341083 4.4804957-2.58403103 7.1179779.2293798 2.6374821 1.61026191 5.0395614 3.77403103 6.5650221.00021733.96718.23346606 1.9200696.68 2.778-.31512603.6771765-.48120121 1.4141139-.487 2.161 0 6.169 11.421 11 26 11s26-4.831 26-11c-.0057988-.7468861-.171874-1.4838235-.487-2.161.4465339-.8579304.6797827-1.81082.68-2.778 2.1637691-1.5254607 3.5446512-3.92754 3.774031-6.5650221.2293798-2.6374822-.7160926-5.2418827-2.584031-7.1179779zm-42.697-19.629c-.821-1.067-.03-2.725.907-3.737l.553.718c.2143423.2933078.5708914.44730389.9313682.40226459.3604768-.04503929.6681747-.28202882.8037604-.6190579.1355857-.33702909.0777302-.72107955-.1511286-1.00320669l-.553-.719c1.208-.643 3.024-.991 3.846.076.994 1.289-.332 3.411-1.643 4.421s-3.703 1.746-4.694.461zm10.689 18.032c.2071041.1658359.4716222.2425711.735322.2133128.2636999-.0292583.5049635-.1621115.670678-.3693128l2.9-3.626c.3941572.1470228.8381646.0243709 1.1009642-.3041286.2627996-.3284996.284995-.7886011.0550358-1.1408714l3.143-3.929c.3407114-.4315746.2690699-1.0572621-.1603755-1.4006534-.4294453-.3433912-1.0555666-.275646-1.4016245.1516534l-2.825 3.531-4.408-5.722c1.536-.12 3.143-.185 4.814-.185 13.555 0 23 4.217 23 8s-9.445 8-23 8-23-4.216-23-8c0-3.073 6.233-6.433 15.839-7.585l5.469 7.1-3.089 3.862c-.3437566.4312294-.2735178 1.0593525.157 1.404zm-20.35-4.365c.528 5.407 11.3 9.584 24.975 9.584s24.447-4.177 24.975-9.584c.6372847.9049481.9937966 1.9776143 1.025 3.084 0 6.234-11.906 11.5-26 11.5s-26-5.266-26-11.5c.03120335-1.1063857.38771529-2.1790519 1.025-3.084zm44.5 12.842c-.1868276.6468259-.485323 1.2560003-.882 1.8-1.2237506 1.5503717-3.00894 2.5563146-4.969 2.8-2.0404854.2361836-4.1075227-.0501116-6.007-.832-.3086667-.12-.6213333-.2533333-.938-.4 4.4141964-.4433409 8.7308749-1.5799661 12.791-3.368zm-28.8 3.006c-.5097765.3670238-1.073966.651818-1.672.844-1.7342673.5951227-3.6537361.2338691-5.053-.951-.5943006-.570647-1.0700675-1.2530326-1.4-2.008 2.6299628.9699301 5.3490999 1.6783527 8.118 2.115zm9.275 17.736c-14.356 0-24-4.654-24-9 0-.043.007-.086.009-.129.40050084.3815325.84067251.7191203 1.313 1.007 2.1322283 1.1579802 4.5472425 1.6926863 6.969 1.543 1.6497718.028461 3.2884727-.2745236 4.819-.891.9924851-.437821 1.8655485-1.1071925 2.546-1.952 1.8601294 2.789507 4.9911758 4.4649632 8.344 4.4649632s6.4838706-1.6754562 8.344-4.4649632c.6804515.8448075 1.5535149 1.514179 2.546 1.952 1.5305273.6164764 3.1692282.919461 4.819.891 2.4218892.1513723 4.8373641-.3834358 6.969-1.543.4723275-.2878797.9124992-.6254675 1.313-1.007 0 .043.009.086.009.129 0 4.349-9.644 9-24 9zm27.98-20.751c-.2023241 2.2439427-1.442539 4.2641018-3.352 5.46-.3366162.2084392-.5185587.5958511-.464.988.0909942 1.8509739-.8881571 3.589959-2.518 4.472-1.8134594.9620772-3.8599549 1.3974944-5.908 1.257-1.3777931.0432726-2.7495213-.2005599-4.028-.716-1.1332289-.4502901-2.0122024-1.3745829-2.405-2.529-.1119148-.4124394-.4735529-.7081789-.9-.736-.4279028-.0321371-.8272896.2167209-.987.615-.1839808.4422089-.4019672.869489-.652 1.278-1.4731097 2.3109157-4.0239921 3.7099212-6.7645 3.7099212s-5.2913903-1.3990055-6.7645-3.7099212c-.249326-.4087458-.4669631-.8359966-.651-1.278-.1586732-.3991468-.5587752-.6484505-.987-.615-.4264471.0278211-.7880852.3235606-.9.736-.3927976 1.1544171-1.2717711 2.0787099-2.405 2.529-1.2784787.5154401-2.6502069.7592726-4.028.716-2.0476205.1345482-4.0925078-.3005268-5.908-1.257-1.6298429-.882041-2.60899418-2.6210261-2.518-4.472.05455865-.3921489-.1273838-.7795608-.464-.988-1.75483476-1.0612533-2.95491557-2.8397799-3.28222311-4.8642732-.32730753-2.0244934.25120146-4.0905714 1.58222311-5.6507268 1.71343105 2.1016559 3.89818887 3.7697735 6.377 4.869.1597617.5378035.3510937 1.0657195.573 1.581.4527669 1.1347464 1.1456058 2.1581422 2.031 3 1.2924985 1.1405917 2.9633641 1.7591007 4.687 1.735.7838298.0001858 1.5629958-.1205681 2.31-.358 1.3945549-.4605485 2.638511-1.2898526 3.6-2.4 2.2395893.2549928 4.4919425.3815332 6.746.379 1.0426667 0 2.0696667-.0263333 3.081-.079 1.2246014.7683 2.515799 1.4249433 3.858 1.962 1.7100745.6819933 3.5310882 1.0433485 5.372 1.066.5496665.0006976 1.098697-.037397 1.643-.114 2.4869407-.3201083 4.7472076-1.6083527 6.29-3.585.8901991-1.208736 1.4111952-2.6494637 1.5-4.148 1.7689926-.9897639 3.3261782-2.3176019 4.583-3.908 1.1814135 1.4092565 1.7735331 3.2200031 1.653 5.055z" data-original="#000000" class="active-path" data-old_color="#000000" fill="#E67E22"/></g></g></g> </svg>
