<?xml version="1.0"?>
<svg xmlns="http://www.w3.org/2000/svg" height="512px" viewBox="0 0 409.6 409.6" width="512px" class=""><g><path d="m385.707031 361.8125c-5.425781 0-10.375 1.886719-14.390625 4.945312l-78.960937-80.152343c17.769531-20.21875 28.898437-46.308594 30.132812-74.980469h32.84375c1.671875 11.550781 11.542969 20.480469 23.546875 20.480469 13.175782 0 23.894532-10.71875 23.894532-23.894531 0-13.171876-10.71875-23.894532-23.894532-23.894532-9.492187 0-17.644531 5.613282-21.496094 13.65625h-35.050781c-1.921875-28.039062-13.335937-53.441406-31.089843-73.101562l79.347656-82.632813c4.132812 3.414063 9.355468 5.546875 15.117187 5.546875 13.171875 0 23.894531-10.71875 23.894531-23.890625 0-13.175781-10.722656-23.894531-23.894531-23.894531-13.175781 0-23.894531 10.71875-23.894531 23.894531 0 2.328125.441406 4.535157 1.066406 6.664063l-81.332031 84.695312c-18.996094-16.832031-43.199219-27.855468-69.921875-30.195312v-39.667969c8.046875-3.851563 13.65625-12 13.65625-21.496094 0-13.175781-10.722656-23.894531-23.894531-23.894531s-23.894531 10.71875-23.894531 23.894531c0 12.003907 8.933593 21.875 20.480468 23.546875v37.222656c-28.941406.695313-55.390625 11.480469-75.972656 29.035157l-77.242188-78.402344c1.871094-3.40625 3.027344-7.253906 3.027344-11.402344 0-13.175781-10.71875-23.894531-23.890625-23.894531-13.175781 0-23.894531 10.71875-23.894531 23.894531 0 13.171875 10.71875 23.890625 23.894531 23.890625 4.046875 0 7.808594-1.105468 11.152344-2.894531l77.105469 78.265625c-18.644532 19.882812-30.667969 45.960938-32.648438 74.816406h-34.113281c-3.851563-8.042968-12-13.652344-21.496094-13.652344-13.175781 0-23.894531 10.71875-23.894531 23.894532 0 13.171875 10.71875 23.890625 23.894531 23.890625 12.003907 0 21.875-8.929688 23.546875-20.480469h31.90625c1.320313 30.582031 13.882813 58.253906 33.757813 78.964844-.011719.03125-.011719.0625-.019531.09375l-73.824219 76.882812c-4.167969-3.535156-9.488281-5.753906-15.367188-5.753906-13.175781 0-23.894531 10.71875-23.894531 23.894531 0 13.171875 10.71875 23.894531 23.894531 23.894531 13.171875 0 23.890625-10.722656 23.890625-23.894531 0-2.199219-.394531-4.289062-.953125-6.3125l76.25-79.410156c20.417969 17.003906 46.46875 27.375 74.894531 28.054687v34.117188c-11.550781 1.675781-20.480468 11.546875-20.480468 23.550781 0 13.171875 10.71875 23.894531 23.890625 23.894531 13.175781 0 23.894531-10.722656 23.894531-23.894531 0-9.496093-5.609375-17.648437-13.652344-21.496093v-36.566407c27.300782-2.390625 51.972656-13.851562 71.144532-31.3125l80.4375 81.644531c-.84375 2.4375-1.398438 5.011719-1.398438 7.730469 0 13.171875 10.71875 23.894531 23.894531 23.894531 13.171875 0 23.894531-10.722656 23.894531-23.894531 0-13.175781-10.722656-23.894531-23.894531-23.894531zm-174.082031-95.804688c8.453125.835938 16.6875 2.734376 24.621094 5.476563-6.425782 19.546875-15.371094 33.1875-24.621094 38.714844zm0-13.703124v-40.679688h34.015625c-.355469 17.292969-2.386719 33.074219-5.648437 46.726562-9.140626-3.097656-18.628907-5.195312-28.367188-6.046874zm0-54.332032v-37.574218c9.742188-.851563 19.230469-2.945313 28.367188-6.039063 3.0625 12.828125 5.050781 27.539063 5.578124 43.613281zm0-51.269531v-44.199219c9.25 5.527344 18.199219 19.167969 24.625 38.71875-7.933594 2.738282-16.167969 4.644532-24.625 5.480469zm20.136719-43.996094c13.917969 4.148438 26.679687 10.988281 37.640625 19.976563-6.367188 5.222656-13.210938 9.707031-20.484375 13.3125-4.539063-13.519532-10.371094-24.839844-17.15625-33.289063zm-33.789063-2.222656v46.621094c-10.085937-.269531-19.945312-1.867188-29.359375-4.800781 7.445313-23.246094 18.449219-38.40625 29.359375-41.820313zm-42.136718 36.839844c-8.347657-3.832031-16.246094-8.671875-23.457032-14.597657 12.070313-9.910156 26.355469-17.152343 41.941406-21.113281-7.386718 8.820313-13.695312 21.015625-18.484374 35.710938zm42.136718 23.433593v37.214844h-38.324218c.515624-15.617187 2.417968-29.914062 5.332031-42.480468 10.585937 3.253906 21.667969 4.996093 32.992187 5.265624zm0 50.867188v40.320312c-11.332031.269532-22.421875 1.992188-32.996094 5.242188-3.105468-13.386719-5.050781-28.746094-5.398437-45.5625zm0 53.976562v46.621094c-10.914062-3.417968-21.921875-18.585937-29.367187-41.84375 9.410156-2.933594 19.273437-4.507812 29.367187-4.777344zm-23.652344 45.492188c-15.601562-3.964844-29.898437-11.214844-41.976562-21.140625 7.214844-5.933594 15.136719-10.746094 23.488281-14.585937 4.789063 14.703124 11.101563 26.902343 18.488281 35.726562zm74.601563-34.398438c7.273437 3.605469 14.109375 8.113282 20.472656 13.332032-10.960937 8.984375-23.722656 15.824218-37.636719 19.96875 6.789063-8.449219 12.625-19.777344 17.164063-33.300782zm30.464844 3.914063c-8.160157-6.890625-17.074219-12.636719-26.578125-17.121094 3.855468-15.460937 6.117187-33.054687 6.484375-51.863281h49.546875c-1.296875 26.664062-12.222656 50.789062-29.453125 68.984375zm99.492187-82.636719c5.648438 0 10.242188 4.59375 10.242188 10.242188 0 5.644531-4.59375 10.238281-10.242188 10.238281-5.644531 0-10.238281-4.59375-10.238281-10.238281 0-5.648438 4.59375-10.242188 10.238281-10.242188zm-119.660156 0c-.546875-17.640625-2.769531-34.152344-6.414062-48.765625 9.507812-4.480469 18.421874-10.21875 26.582031-17.109375 16.558593 17.488282 27.328125 40.441406 29.292969 65.875zm126.488281-184.320312c5.648438 0 10.238281 4.59375 10.238281 10.242187 0 5.644531-4.589843 10.238281-10.238281 10.238281-5.648437 0-10.242187-4.59375-10.242187-10.238281 0-5.648437 4.59375-10.242187 10.242187-10.242187zm-194.558593 10.242187c0-5.648437 4.589843-10.242187 10.238281-10.242187 5.648437 0 10.238281 4.59375 10.238281 10.242187 0 5.644531-4.589844 10.238281-10.238281 10.238281-5.648438 0-10.238281-4.59375-10.238281-10.238281zm-177.496094 0c0-5.648437 4.59375-10.242187 10.242187-10.242187 5.644531 0 10.238281 4.59375 10.238281 10.242187 0 5.644531-4.59375 10.238281-10.238281 10.238281-5.648437 0-10.242187-4.59375-10.242187-10.238281zm108.773437 108.230469c9.039063 7.644531 19.015625 13.847656 29.667969 18.511719-3.445312 14.261719-5.5625 30.253906-6.09375 47.335937h-52.839844c1.960938-25.421875 12.722656-48.363281 29.265625-65.847656zm-98.53125 86.328125c-5.648437 0-10.242187-4.59375-10.242187-10.238281 0-5.648438 4.59375-10.242188 10.242187-10.242188 5.644531 0 10.238281 4.59375 10.238281 10.242188 0 5.644531-4.59375 10.238281-10.238281 10.238281zm122.035157-6.828125c.355468 18.238281 2.511718 35.304688 6.160156 50.421875-10.65625 4.664063-20.640625 10.859375-29.683594 18.511719-17.203125-18.1875-28.113281-42.292969-29.40625-68.933594zm-122.035157 184.320312c-5.648437 0-10.242187-4.589843-10.242187-10.238281 0-5.648437 4.59375-10.242187 10.242187-10.242187 3.722657 0 6.960938 2.023437 8.75 5.003906.003907.003906.003907.007812.003907.011719.921874 1.535156 1.484374 3.308593 1.484374 5.226562 0 5.648438-4.59375 10.238281-10.238281 10.238281zm177.492188 0c-5.648438 0-10.238281-4.589843-10.238281-10.238281 0-5.648437 4.589843-10.242187 10.238281-10.242187 5.648437 0 10.238281 4.59375 10.238281 10.242187 0 5.648438-4.589844 10.238281-10.238281 10.238281zm184.320312 0c-5.648437 0-10.242187-4.589843-10.242187-10.238281 0-5.648437 4.59375-10.242187 10.242187-10.242187 5.648438 0 10.238281 4.59375 10.238281 10.242187 0 5.648438-4.589843 10.238281-10.238281 10.238281zm0 0" data-original="#000000" class="active-path" data-old_color="#000000" fill="#E67E22"/></g> </svg>
