<?xml version="1.0"?>
<svg xmlns="http://www.w3.org/2000/svg" height="512px" viewBox="0 0 128 128" width="512px" class=""><g><g id="Layer_2" data-name="Layer 2"><rect fill="#a7adf0" height="69.48" rx="5" width="124.5" x="1.75" y="51.27" data-original="#A7ADF0" class="active-path" style="fill:#E67E22" data-old_color="#a7adf0"/><path d="m56.394 104.27h-12.716a5.757 5.757 0 0 1 -5.75-5.75v-25.02a5.757 5.757 0 0 1 5.75-5.75h12.716a5.757 5.757 0 0 1 5.75 5.75v25.02a5.757 5.757 0 0 1 -5.75 5.75zm-12.716-33.02a2.253 2.253 0 0 0 -2.25 2.25v25.02a2.253 2.253 0 0 0 2.25 2.25h12.716a2.253 2.253 0 0 0 2.25-2.25v-25.02a2.252 2.252 0 0 0 -2.25-2.25z" fill="#d7fc7e" data-original="#D7FC7E" class=""/><path d="m108.25 104.27h-12.716a1.751 1.751 0 0 1 -1.75-1.75v-33.02a1.751 1.751 0 0 1 1.75-1.75h12.716a9.761 9.761 0 0 1 9.75 9.75v17.02a9.761 9.761 0 0 1 -9.75 9.75zm-10.966-3.5h10.966a6.257 6.257 0 0 0 6.25-6.25v-17.02a6.257 6.257 0 0 0 -6.25-6.25h-10.966z" fill="#d7fc7e" data-original="#D7FC7E" class=""/><path d="m88.322 104.27h-15.716a6.758 6.758 0 0 1 -6.75-6.75v-28.02a1.75 1.75 0 0 1 3.5 0v28.02a3.254 3.254 0 0 0 3.25 3.25h15.716a1.75 1.75 0 0 1 0 3.5z" fill="#d7fc7e" data-original="#D7FC7E" class=""/><path d="m27.466 104.27h-15.716a1.75 1.75 0 0 1 0-3.5h15.716a3.254 3.254 0 0 0 3.25-3.25v-6.51a3.254 3.254 0 0 0 -3.25-3.25h-10.716a6.758 6.758 0 0 1 -6.75-6.75v-6.51a6.758 6.758 0 0 1 6.75-6.75h15.716a1.75 1.75 0 1 1 0 3.5h-15.716a3.254 3.254 0 0 0 -3.25 3.25v6.51a3.254 3.254 0 0 0 3.25 3.25h10.716a6.758 6.758 0 0 1 6.75 6.75v6.51a6.758 6.758 0 0 1 -6.75 6.75z" fill="#d7fc7e" data-original="#D7FC7E" class=""/><rect fill="#a7adf0" height="17.5" rx="5" width="26.211" x="50.897" y="7.25" data-original="#A7ADF0" class="active-path" style="fill:#E67E22" data-old_color="#a7adf0"/><path d="m29.528 51.27 30.506-26.52h-4.134a5 5 0 0 1 -4.586-3.016l-33.98 29.536z" fill="#fff5cc" data-original="#FFF5CC" class=""/><path d="m72.108 24.75h-4.137l30.507 26.52h12.193l-33.976-29.536a5 5 0 0 1 -4.587 3.016z" fill="#fff5cc" data-original="#FFF5CC" class=""/><g fill="#231f20"><path d="m121.25 49.52h-9.924l-32.619-28.357a6.714 6.714 0 0 0 .151-1.413v-7.5a6.757 6.757 0 0 0 -6.75-6.75h-16.208a6.758 6.758 0 0 0 -6.75 6.75v7.5a6.714 6.714 0 0 0 .152 1.413l-4.112 3.576a1.749 1.749 0 1 0 2.3 2.641l3.482-3.026c.032.034.067.064.1.1.057.058.115.114.174.17.1.092.193.182.294.268.062.052.125.1.188.152.1.081.206.159.313.234.07.049.142.1.214.143.1.067.209.132.317.193.081.046.163.091.246.134.1.053.208.1.314.151.091.042.184.082.278.119s.206.078.311.114.2.068.3.1.214.057.321.083.2.049.309.069.23.037.346.053c.1.013.2.028.3.037.029 0 .057.009.086.011l-26.5 23.04h-6.868l5.854-5.089a1.75 1.75 0 1 0 -2.3-2.642l-8.889 7.726h-9.93a6.757 6.757 0 0 0 -6.75 6.75v59.48a6.758 6.758 0 0 0 6.75 6.75h110.125a1.75 1.75 0 0 0 0-3.5h-110.125a3.254 3.254 0 0 1 -3.25-3.25v-59.48a3.254 3.254 0 0 1 3.25-3.25h114.5a3.254 3.254 0 0 1 3.25 3.25v59.48a1.75 1.75 0 0 0 3.5 0v-59.48a6.757 6.757 0 0 0 -6.75-6.75zm-68.6-37.27a3.254 3.254 0 0 1 3.25-3.25h16.208a3.254 3.254 0 0 1 3.25 3.25v7.5a3.234 3.234 0 0 1 -.264 1.28v.008l-.008.015a3.2 3.2 0 0 1 -.248.457c-.036.055-.077.106-.116.159a3.282 3.282 0 0 1 -.243.295c-.044.046-.087.092-.133.136a3.276 3.276 0 0 1 -.352.291c-.028.02-.053.043-.082.063a3.219 3.219 0 0 1 -.487.264c-.05.022-.1.039-.154.059a3.178 3.178 0 0 1 -.4.125c-.057.014-.114.028-.172.039a3.212 3.212 0 0 1 -.584.059h-16.215a3.212 3.212 0 0 1 -.584-.059c-.057-.011-.113-.025-.17-.038a3.4 3.4 0 0 1 -.405-.126c-.051-.02-.1-.037-.152-.059a3.194 3.194 0 0 1 -.488-.265c-.027-.018-.051-.041-.078-.06a3.241 3.241 0 0 1 -.357-.294c-.044-.043-.087-.088-.129-.133a3.236 3.236 0 0 1 -.248-.3c-.038-.051-.077-.1-.112-.154a3.209 3.209 0 0 1 -.256-.472 3.233 3.233 0 0 1 -.269-1.287zm8.038 14.25h6.629l26.483 23.02h-59.592zm38.444 23.02-26.5-23.04c.029 0 .057-.008.085-.011.1-.009.2-.024.3-.037.116-.016.232-.032.346-.053s.206-.044.309-.069.215-.052.32-.082.2-.064.3-.1.207-.073.308-.113.189-.079.283-.121.206-.1.308-.149c.085-.044.169-.089.252-.137.105-.06.208-.123.309-.188.076-.048.15-.1.223-.149.1-.072.2-.148.3-.227.067-.052.133-.105.2-.16.1-.083.191-.17.284-.258.062-.06.124-.119.184-.18.031-.033.065-.062.1-.094l28.948 25.168z" data-original="#231F20" class=""/><path d="m43.678 67.75a5.757 5.757 0 0 0 -5.75 5.75v25.02a5.757 5.757 0 0 0 5.75 5.75h12.716a5.757 5.757 0 0 0 5.75-5.75v-25.02a5.757 5.757 0 0 0 -5.75-5.75zm14.966 5.75v25.02a2.253 2.253 0 0 1 -2.25 2.25h-12.716a2.253 2.253 0 0 1 -2.25-2.25v-25.02a2.253 2.253 0 0 1 2.25-2.25h12.716a2.252 2.252 0 0 1 2.25 2.25z" data-original="#231F20" class=""/><path d="m95.534 67.75a1.751 1.751 0 0 0 -1.75 1.75v33.02a1.751 1.751 0 0 0 1.75 1.75h12.716a9.761 9.761 0 0 0 9.75-9.75v-17.02a9.761 9.761 0 0 0 -9.75-9.75zm18.966 9.75v17.02a6.257 6.257 0 0 1 -6.25 6.25h-10.966v-29.52h10.966a6.257 6.257 0 0 1 6.25 6.25z" data-original="#231F20" class=""/><path d="m67.606 67.75a1.751 1.751 0 0 0 -1.75 1.75v28.02a6.758 6.758 0 0 0 6.75 6.75h15.716a1.75 1.75 0 0 0 0-3.5h-15.716a3.254 3.254 0 0 1 -3.25-3.25v-28.02a1.751 1.751 0 0 0 -1.75-1.75z" data-original="#231F20" class=""/><path d="m16.75 71.25h15.716a1.75 1.75 0 1 0 0-3.5h-15.716a6.758 6.758 0 0 0 -6.75 6.75v6.51a6.758 6.758 0 0 0 6.75 6.75h10.716a3.254 3.254 0 0 1 3.25 3.25v6.51a3.254 3.254 0 0 1 -3.25 3.25h-15.716a1.75 1.75 0 0 0 0 3.5h15.716a6.758 6.758 0 0 0 6.75-6.75v-6.51a6.758 6.758 0 0 0 -6.75-6.75h-10.716a3.254 3.254 0 0 1 -3.25-3.25v-6.51a3.254 3.254 0 0 1 3.25-3.25z" data-original="#231F20" class=""/><path d="m34.562 38.044a1.741 1.741 0 0 0 1.146-.429l3.934-3.415a1.75 1.75 0 1 0 -2.3-2.642l-3.933 3.42a1.749 1.749 0 0 0 1.149 3.07z" data-original="#231F20" class=""/></g></g></g> </svg>
